<svg version="1" xmlns="http://www.w3.org/2000/svg" width="533.333" height="533.333" viewBox="0 0 400.000000 400.000000"><path d="M173.3 10.5c-53.1 8.1-97.9 35.3-128.7 78.3C-5.2 158.3-2.1 253 52.1 319.5c13.5 16.6 32.7 33 51.6 44.1 29.1 17.2 66.7 27.1 99 26.3 10.3-.3 10.4-.6 2.2-5.3l-4.5-2.6-5.4 3.5c-2.9 1.9-5.7 3.2-6.1 2.9-.7-.4-.1-3.2 2.4-10.9.6-1.6-.4-2.9-4.3-6-2.8-2.2-5-4.3-5-4.7 0-.4 3-.8 6.7-1l6.7-.3 2-6.2c1.2-3.5 2.6-6.3 3.2-6.3.5 0 1.8 2.9 2.9 6.5l1.8 6.5h6.4c3.4 0 6.3.4 6.3.8s-2 2.7-4.4 5.1l-4.4 4.3 2.1 6.4c2.5 7.5 1.8 7.3 17.5 4.9 41.2-6.2 78.4-25.4 107.7-55.7 12.6-13 13.4-13.9 22.3-27.3 53.5-79.7 38.3-188.1-35-250.3-24.7-20.9-53.5-34.9-85.9-41.8-10.7-2.2-15.3-2.6-33.9-3-15-.2-24.3.1-30.7 1.1zm26.7 10c0 .8-.7 1.5-1.6 1.5-1.3 0-1.5.7-1 3.1.3 1.7.6 5.6.6 8.5 0 5.3 0 5.4 3 5.4 2.3 0 3-.4 3-2 0-1.1.7-2 1.5-2 1 0 1.5 1.1 1.5 3.5V42h-7.5c-6 0-7.5-.3-7.5-1.5 0-.8.5-1.5 1-1.5.6 0 1-3.5 1-8.5s-.4-8.5-1-8.5c-.5 0-1-.7-1-1.5 0-1.1 1.1-1.5 4-1.5s4 .4 4 1.5zm70.2 12.1c4.1 2.1 4.3 4.7 1.1 13.1-3.4 9.1-5.3 10.4-11.6 8.2-6.1-2.1-6.8-4.8-3.2-14.3 3.8-9.7 6-10.9 13.7-7zm-136.7.6c0 2 9.6 14.7 11.1 14.8 2.5 0 2.4 3.1-.2 4-4 1.6-5.7 1.3-5.1-.9.9-3.4-.7-4.6-4.2-3.1-3.3 1.3-4.2 4.4-1.6 5.4.8.3 1.5.9 1.5 1.4 0 1.1-5.8 3.7-6.6 2.9-.3-.3-.7-4.9-.8-10.3-.2-6.4-.7-9.9-1.4-10.2-2.3-.7-1.2-3.3 2.1-4.7 3.7-1.6 5.2-1.4 5.2.7zm97.8 16.7c61.2 13.2 108.4 62.3 119.3 124.1 2.3 12.9 2.2 37.2-.1 50.5-3.1 18.2-11.9 41.2-21.3 55.9-10.2 16-28.2 34.5-43.3 44.7-26.1 17.5-54.3 26.1-85.9 26.1-31.8 0-58.9-8.3-86-26.3-12.4-8.2-31.6-27.3-39.7-39.4-23.8-35.5-32-76.6-23.7-117.5 6.4-31.1 24.6-62.2 48.9-83.4 7.9-6.9 20.4-15.6 22.3-15.6.6 0 4.8 5.3 9.4 11.7l8.3 11.8-.4 40.8-.3 40.8-10.9 21.1c-5.9 11.6-10.9 21.2-11.1 21.3-.2.2-7-.9-15.2-2.4l-14.8-2.8-1.9 3.1c-4.9 8-7 21.2-5.7 36.7.6 7.9 1.3 10.4 4.8 17.7 2.2 4.6 6.5 12.3 9.6 17 5.4 8.4 23.6 32.4 24 31.9.2-.1-1.7-5.3-4.2-11.4-8.6-21.4-11.4-38.3-7.7-46 1.8-3.8 6.3-6.3 23.4-13.2l7.3-2.9 4.9-13.4c2.7-7.3 5.2-13.6 5.5-13.9.4-.4 10.8-1.9 23.2-3.4l22.5-2.8 41.9 11.1c23.1 6.2 42.3 11.7 42.6 12.3.4.6 1.3 3.5 1.9 6.4 1.3 5.6 2.4 6.5 8.6 6.5 4.1 0 6.9 2.2 10.1 7.6 4.8 8.2 6.5 15.7 7.1 31.2l.6 14.3 2.4-4.3c3.4-5.9 9.8-22.1 11.7-29.3.8-3.3 2-9.8 2.6-14.5 1.4-10.7-.4-22.3-4.7-30.2-2.5-4.8-3.4-5.5-9.6-8.1-3.7-1.5-13.1-4.4-20.9-6.4-12.8-3.2-16-4.6-35.1-14.4L230.8 182l-11.7 4.1c-6.4 2.2-13.3 4.7-15.4 5.5-4.9 1.8-6.9 1.8-6.5-.2.3-1.7 12.8-6.2 61.6-22.2l29.3-9.6 5.3 2.7c5 2.6 6.2 2.7 16.4 2.6 10.3-.2 11.3-.1 16.8 2.7 3.2 1.6 8.9 5.9 12.6 9.5 7.7 7.5 7.6 7.9 2.2-8.9-3.9-11.8-10.2-25.3-14.2-29.8-1.5-1.8-8.7-6.8-16.1-11.3l-13.5-8.2-4.5 4.9-4.6 4.8-10.4 1.2c-5.8.7-10.6 1.4-10.8 1.6-.2.1 1 6.3 2.7 13.6 1.7 7.3 3 13.8 2.8 14.5-.2.7-7.7-2.2-20.8-8.1-11.3-5.2-20.9-9.4-21.5-9.4-.5 0-6.7 4.8-13.6 10.8-35.5 30.2-48.2 40.7-49.2 40.7-3.1 0-.2-3.4 11.3-13.1 39.2-33.4 50-42.4 51-42.4.6 0 8.6 3.4 17.8 7.6 9.1 4.2 17.6 8 18.8 8.4 2.1.8 2.1.7-.8-11.3-1.6-6.7-3.4-13-4.1-13.9-2.9-4.2-34.2-43.7-34.7-43.7-.3-.1-6.6 5.1-14.2 11.4l-13.6 11.4.1 4.4c.2 4.3 0 4.6-17.3 24-9.6 10.7-17.8 19.6-18.1 19.6-1 .1-1.5-2.4-6-34.9l-4.2-30.5 8.2-12c4.6-6.6 11.1-16.1 14.5-21.2 3.3-5.1 6.8-9.4 7.6-9.7.8-.3 9.6-.3 19.5-.1 13.4.3 20.5.9 27.8 2.4zm-152 20.2c-.9.9-1.6.9-2.5.1-.8-.6-1.9-.7-2.7-.3-1.9 1.2 9.4 13.1 12.1 12.8 3.4-.3 3.1 1.8-.7 4.7-3.7 2.8-6 2.7-5-.3.8-2.6-9.9-14-11.6-12.4-1 1-1 1.5.1 2.7 1 1.3.9 1.7-.5 2.3-1.3.4-2.4-.1-3.8-1.8l-1.9-2.4 6.3-5.7 6.4-5.8 2.4 2.5c1.9 1.9 2.3 2.7 1.4 3.6zm247.8-3.2l2.4 2-3.2 9.2-3.2 9.2 4.9-4.8c2.6-2.6 4.6-5.3 4.3-6-.9-2.6 2-2.7 4.4-.2 2.5 2.4 2.4 5.3-.2 4.4-.6-.3-4.3 2.8-8 7-6.6 7.3-6.8 7.4-8.6 5.6-1.9-1.8-1.8-2.1 1.1-10.8l3-8.9-4.5 4.4c-2.5 2.5-4.3 5-4.1 5.7 1 2.6-2 3.2-4.9.9-2.7-2.2-2.8-5.3 0-4.3 1.2.5 11.9-10.7 12.1-12.7.2-2.2.4-2.6 1.3-2.6.5 0 1.9.9 3.2 1.9zm-83 42.6c4.9 6 10.4 13.9 12.3 17.5 4 7.5 10.8 24.1 10.2 24.7-.6.7-56.5-46-56.5-47.2 0-.6 3.7-4.3 8.2-8.2l8.2-7.3 4.4 4.8c2.4 2.6 8.4 9.6 13.2 15.7zm67.8 20.9c6.2 4 11.1 8.1 13.4 11 4.1 5.4 13.3 23.4 12.4 24.3-.4.3-2.9-1.5-5.7-4-2.7-2.5-8.6-6.9-12.9-9.9-7.9-5.3-7.9-5.3-12.7-15.7-5.9-12.6-5.7-12.1-5-12.1.4 0 5.1 2.9 10.5 6.4zm-214 85.7c5 1.1 9.1 2.3 9.1 2.6 0 .3-2.1 2.8-4.6 5.7-2.6 2.8-6 7.8-7.5 11.1-2.5 5.2-2.9 7.2-2.9 15.2 0 5.9.9 13.7 2.6 21.8 1.4 7 2.3 12.9 2.1 13.1-.5.6-4.8-6-8-12.1-6.2-12.3-9.1-30.5-6.9-42.5 1.3-6.7 5-17 6.2-17 .5 0 4.9.9 9.9 2.1zm218.5 9.8c1.4 2.6 2.8 7.1 3.2 9.8 1 8.1-3.4 37.3-5.7 37.3-.9 0-.4-12.3.6-15.6.8-2.6-1.7-18-3.6-22.5-2-4.7-2.1-4.9-.4-9.4 1-2.5 2.2-4.5 2.6-4.5.5 0 2 2.2 3.3 4.9zM70.5 297.5l1.7 5.5h4.9c2.7 0 4.9.4 4.9.9s-1.7 2.2-3.7 3.9l-3.7 2.9 2.2 5.2c2.4 5.9 1.8 6.2-4.5 2.6l-4.3-2.6-4.5 2.7c-2.5 1.4-4.8 2.4-5 2.2-.3-.3.1-2.6.9-5.3l1.5-4.8-4.2-3.8-4.2-3.8 5.7-.1h5.6l1.7-5.5c1-3 2.1-5.5 2.5-5.5.4 0 1.5 2.5 2.5 5.5zm262.9 0l1.7 5.5h5c2.7 0 4.9.4 4.9.9s-1.6 2.2-3.7 3.8l-3.6 3 1.6 4.8c1 2.7 1.5 5 1.2 5.3-.2.2-2.5-.8-5-2.2l-4.6-2.7-4.5 2.6c-2.5 1.5-4.8 2.4-5.1 2.1-.3-.3.2-2.6 1-5.1l1.6-4.6-3.2-2.9c-1.8-1.6-3.5-3-3.9-3-.5 0-.8-.5-.8-1 0-.6 2.4-1 5.3-1h5.3l1.8-5.5c.9-3 2-5.5 2.5-5.5.4 0 1.5 2.5 2.5 5.5zm-205 46l1.7 5.5h5c2.7 0 4.9.3 4.9.7 0 .4-1.6 2.3-3.5 4.3l-3.5 3.6 1.6 4.8c.9 2.6 1.5 4.9 1.2 5.1-.2.2-2.5-1-5.1-2.6l-4.8-2.9-4.5 2.6c-2.5 1.5-4.7 2.4-4.9 2.2-.3-.3.1-2.6.9-5.1l1.4-4.7-3.9-3.5c-2.1-1.9-3.9-3.7-3.9-4 0-.3 2.4-.5 5.3-.5h5.3l1.8-5.5c.9-3 2-5.5 2.5-5.5.4 0 1.5 2.5 2.5 5.5zm150.2 0l1.8 5.5h4.8c2.6 0 4.8.4 4.8.8s-1.5 2.3-3.4 4.1l-3.4 3.3 1.9 5.1c1 2.8 1.7 5.2 1.5 5.4-.2.2-2.6-.9-5.4-2.6l-5-2.9-3.8 2.4c-5.8 3.5-6.4 3.2-4.7-2.7l1.5-5.2-4.3-3.8-4.4-3.8 5.7-.1h5.7l1.7-5.5c1-3 2.1-5.5 2.5-5.5.5 0 1.6 2.5 2.5 5.5z"/><path d="M262.6 34.8c-1.1 1.9-4.6 11.9-4.6 13.4 0 2.1 5.5 4.1 6.8 2.5C266 49.3 270 39 270 37.3c0-.6-1.4-1.6-3.1-2.2-3.8-1.3-3.7-1.3-4.3-.3zM130.8 41.4c.3 3.7.7 4.3 2.3 3.9 2.5-.7 2.4-2.2-.4-5.5l-2.2-2.7.3 4.3zM330 269.5c-.7.9-1 1.8-.7 2.1.3.3 1-.4 1.7-1.5 1.3-2.5.8-2.7-1-.6zM314.9 292.7c-1.3 1.6-1.2 1.7.4.4.9-.7 1.7-1.5 1.7-1.7 0-.8-.8-.3-2.1 1.3zM292.6 314.5c-1.1.8-1.5 1.5-.9 1.5s1.6-.7 2.3-1.5c1.6-1.9 1.1-1.9-1.4 0zM274.5 327c-.3.6.1.7.9.4 1.8-.7 2.1-1.4.7-1.4-.6 0-1.3.4-1.6 1zM270 329.5c-1.4.8-2 1.4-1.4 1.5.5 0 1.9-.7 3-1.5 2.4-1.8 1.6-1.9-1.6 0zM256 336c-.8.5-1 1-.5 1 .6 0 1.7-.5 2.5-1s1.1-1 .5-1c-.5 0-1.7.5-2.5 1zM251.5 338c-.3.6.1.7.9.4 1.8-.7 2.1-1.4.7-1.4-.6 0-1.3.4-1.6 1zM232.8 343.7c.7.3 1.6.2 1.9-.1.4-.3-.2-.6-1.3-.5-1.1 0-1.4.3-.6.6zM66.7 304c-.4 1.4-1.4 2-3.4 2h-2.8l2.2 1.8c1.7 1.2 2.1 2.3 1.6 4.1-.5 2.1-.4 2.2 1.6 1.2 1.6-.9 2.6-.9 4.3 0 1.8 1 2 .9 1.4-.6-.4-1.2.1-2.6 1.5-4.2l2.2-2.3h-3.1c-2.1 0-3.2-.5-3.2-1.4 0-2.4-1.7-2.8-2.3-.6zM329.9 303c-.3 1.8-1.2 2.6-3.4 3-3 .6-3 .6-.7 1.8 1.7 1 2.1 1.8 1.6 3.8-.6 2.4-.5 2.5 1.5 1.5 1.5-.9 2.7-.9 4.1-.1 1.9 1 2 .9 1.5-1.3-.5-1.9-.1-2.9 1.6-4.1l2.3-1.6h-3.1c-2.5 0-3.3-.5-4.1-2.8l-.9-2.7-.4 2.5zM125.1 349.7c-.1 1.9-.7 2.3-3.3 2.3-3.1 0-3.1 0-1.2 2.1 1 1.2 1.8 3 1.6 4-.4 2.2.8 2.5 2.6.7.9-.9 1.5-.9 2.4 0 1.7 1.7 3.1 1.5 2.4-.5-.4-1 .2-2.5 1.5-3.9s1.6-2.2.7-2.1c-3.3.1-4.6-.5-5.6-2.6l-1.1-2.2v2.2zM275.6 349.7c-.5 1.6-1.5 2.3-3.3 2.3-2.5 0-2.6.1-.8 2 1 1.1 1.5 2.8 1.2 4-.6 2.2.3 2.6 2 .9.9-.9 1.8-.8 3.7.5 2.5 1.6 2.5 1.6 1.7-.6-.7-1.7-.4-2.8 1.1-4.5 1.3-1.4 1.5-2.1.6-2-3.5.1-4.7-.5-5-2.6l-.4-2.2-.8 2.2z"/></svg>